<?xml version="1.0" encoding="utf-8"?>
<!-- Generator: Adobe Illustrator 25.1.0, SVG Export Plug-In . SVG Version: 6.00 Build 0)  -->
<svg version="1.1" id="Layer_1" xmlns="http://www.w3.org/2000/svg" xmlns:xlink="http://www.w3.org/1999/xlink" x="0px" y="0px"
	 viewBox="0 0 500 500" style="enable-background:new 0 0 500 500;" xml:space="preserve">
<style type="text/css">
	.st0{fill:#4F1970;}
	.st1{fill:#1E1E1E;stroke:#666666;stroke-miterlimit:10;}
	.st2{fill:#0A0A0A;}
	.st3{fill:#BD362F;}
	.st4{fill:#FFFFFF;}
	.st5{fill:#B1F700;}
	.st6{fill:#FEFEFE;}
	.st7{fill:#020200;}
	.st8{fill:url(#SVGID_1_);}
	.st9{fill:none;stroke:#CCCCCC;}
	.st10{fill:url(#Rectangle_16_10_);}
	.st11{fill:url(#SVGID_2_);}
	.st12{fill:#C6C6C6;}
	.st13{fill:url(#SVGID_3_);}
	.st14{fill:url(#Rectangle_16_11_);}
	.st15{fill:url(#SVGID_4_);}
	.st16{fill:#57476D;}
	.st17{fill:#4F2F7B;}
	.st18{fill:url(#SVGID_5_);}
	.st19{fill:url(#Rectangle_16_12_);}
	.st20{fill:url(#SVGID_6_);}
	.st21{fill:url(#SVGID_7_);}
	.st22{fill:url(#SVGID_8_);}
	.st23{fill:url(#Rectangle_16_13_);}
	.st24{fill:url(#SVGID_9_);}
	.st25{clip-path:url(#SVGID_11_);}
	.st26{opacity:0.89;}
	.st27{fill:url(#Rectangle_36_5_);}
	.st28{fill:url(#SVGID_16_);}
	.st29{fill:url(#SVGID_17_);}
	.st30{fill:url(#Rectangle_36_6_);}
	.st31{fill:url(#SVGID_18_);}
	.st32{clip-path:url(#SVGID_20_);}
	.st33{fill:url(#Rectangle_36_7_);}
	.st34{fill:url(#SVGID_21_);}
	.st35{clip-path:url(#SVGID_23_);}
	.st36{fill:#2B2B2B;stroke:#ADADAD;stroke-miterlimit:10;}
	.st37{fill:#1E1E1E;}
	.st38{clip-path:url(#SVGID_25_);}
	.st39{fill:#252525;stroke:#B1B1B2;stroke-width:0.3;stroke-miterlimit:10;}
	.st40{fill:#50376F;}
	.st41{fill:#2B2B2B;}
	.st42{fill:#643E94;}
	.st43{fill:#515151;}
	.st44{fill:#232323;}
	.st45{fill:#474747;}
	.st46{fill:url(#SVGID_38_);}
	.st47{fill:url(#SVGID_39_);}
	.st48{fill:url(#Rectangle_16_14_);}
	.st49{fill:url(#SVGID_40_);}
	.st50{clip-path:url(#SVGID_42_);}
	.st51{fill:url(#SVGID_43_);}
	.st52{fill:url(#SVGID_44_);}
	.st53{fill:url(#Rectangle_16_15_);}
	.st54{fill:url(#SVGID_45_);}
	.st55{clip-path:url(#SVGID_47_);}
	.st56{fill:url(#Rectangle_18_13_);}
	.st57{fill:url(#SVGID_48_);}
	.st58{fill:url(#Rectangle_18_14_);}
	.st59{fill:url(#Rectangle_18_15_);}
	.st60{fill:url(#SVGID_49_);}
	.st61{fill:#FFFFFF;stroke:#727172;stroke-miterlimit:10;}
	.st62{fill:#EAEAEA;}
	.st63{fill:#EAEAEA;stroke:#727172;stroke-miterlimit:10;}
	.st64{fill:#4D2975;}
	.st65{clip-path:url(#SVGID_63_);}
	.st66{fill:url(#Rectangle_18_16_);}
	.st67{fill:url(#SVGID_64_);}
	.st68{fill:url(#Rectangle_36_8_);}
	.st69{fill:url(#SVGID_69_);}
	.st70{fill:url(#Rectangle_16_16_);}
	.st71{fill:url(#SVGID_70_);}
	.st72{fill:url(#SVGID_71_);}
	.st73{fill:url(#Rectangle_16_17_);}
	.st74{fill:url(#SVGID_72_);}
	.st75{fill:url(#SVGID_73_);}
	.st76{fill:url(#Rectangle_16_18_);}
	.st77{fill:url(#SVGID_74_);}
	.st78{fill:url(#SVGID_75_);}
	.st79{fill:none;stroke:#C1C1C1;stroke-miterlimit:10;}
	.st80{fill:#7F3F98;}
	.st81{fill:url(#SVGID_76_);}
	.st82{fill:url(#SVGID_77_);}
	.st83{fill:none;stroke:#F7F7F7;stroke-width:0.5;stroke-miterlimit:10;}
	.st84{fill:#1E1E1E;stroke:#4E5D6C;stroke-miterlimit:10;}
</style>
<g>
	<circle class="st5" cx="250" cy="251" r="250"/>
	<path class="st7" d="M321,172.9c-28.7-25.9-26.1-55.6,4.7-70.3c3.5,4.6-1,8.1-2.1,11.7c-5,16.4-0.1,28.2,15.8,34.8
		c15.1,6.3,31.1,8.4,47.3,6.8c18.3-1.8,22.7-7,24.7-26.8c13.7,7.7,13.6,26.9,0.9,40.4c-5.1,5.5-16.4,4.4-16.3,14.8
		c0.1,13.6,5.3,25.5,14.1,35.7c4.8,5.6,10.1,11,15.9,15.5c7.2,5.6,7.6,12,4.7,19.7c-9,24.3-32.2,33.9-56.3,23.2
		c-27-12-39.6-7.1-48.3,21.5c-7.9,26.1-12.8,53.1-21.8,79.1c-4.9,14.2-0.1,29.3,5.3,43.3c2.5,6.5,5.1,12.9,7.3,19.5
		c1.6,4.8,5.5,11,0.9,14.6c-6.4,5-14.7,3.5-22.6,1.8c-6.6-1.4-6.9-5.9-8.4-11.3c-10.6-39.7-14.9-81.7-43.7-114.9
		c-8-9.2-17.3-9-26.7-9.8c-7.1-0.6-4.7,6-4.1,9.8c2.1,12.5,6.8,24.2,11.9,35.8c3.9,8.7,7.6,17.5,10.8,26.6c2.1,6,7.6,13.3-3.8,16.7
		c-11.6,3.4-20.8-0.9-22.8-11.3c-2.9-15.5-7.7-30.3-14.6-44.4c-9-18.4-22-33.4-38.3-45.5c-11.4-8.5-15.4-6.6-16.9,7.9
		c-2.1,21.5,0.8,42.6,5.4,63.5c1.6,7.3,1.3,12.3-7.1,13c-7.9,0.6-20.4,2.8-19.2-8.6c3-30.1-9.6-57-13.3-85.6
		c-3.4-26.7-6.4-53.7-0.4-80.6c7.7-34.5,29.7-51.8,65.1-51.7c31.1,0.2,61.3,7.6,91.9,11.4C281.1,181.4,300.3,178.7,321,172.9z"/>
</g>
</svg>
